<svg width="112" height="32" viewBox="0 0 112 32" fill="none" xmlns="http://www.w3.org/2000/svg">
<g clip-path="url(#clip0_17_10)">
<path fill-rule="evenodd" clip-rule="evenodd" d="M32.377 -0.991211V33.4756L20.25 22.9883V32.2891H-0.703125V-1L32.377 -0.991211ZM5.10742 26.4912H14.4404V10.2529L26.5674 20.9473V4.80469L5.10742 4.79883V26.4912Z" fill="#FFFFFF"/>
<path d="M51.6113 14.877V5.65723H57.4072V27.6055L45.3408 16.96V26.1807H39.5459V4.23242L51.6113 14.877Z" fill="#FFFFFF"/>
<path d="M106.843 14.877V5.65723H112.639V27.6055L100.572 16.96V26.1807H94.7773V4.23242L106.843 14.877Z" fill="#FFFFFF"/>
<path fill-rule="evenodd" clip-rule="evenodd" d="M83.6934 5.44824C89.503 5.44831 94.1943 10.1195 94.1943 15.9189C94.1943 21.7183 89.5029 26.3896 83.6934 26.3896C77.8831 26.3896 73.1914 21.7184 73.1914 15.9189C73.1914 10.1194 77.8831 5.44824 83.6934 5.44824ZM83.6934 11.1006C81.0352 11.1006 79.0137 13.226 79.0137 15.9189C79.0137 18.6118 81.0353 20.7373 83.6934 20.7373C86.2674 20.7372 88.245 18.7428 88.3662 16.1699L88.3721 15.9189C88.3721 13.31 86.4749 11.2336 83.9404 11.1064L83.6934 11.1006Z" fill="#FFFFFF"/>
<path d="M72.9443 11.3877H65.3799V13.04H71.373V18.6934H65.3799V20.4502H72.9443V26.1807H59.585V5.65723H72.9443V11.3877Z" fill="#FFFFFF"/>
</g>
<defs>
<clipPath id="clip0_17_10">
<rect width="112" height="32" fill="white"/>
</clipPath>
</defs>
</svg>
