<svg width="151" height="32" viewBox="0 0 151 32" fill="none" xmlns="http://www.w3.org/2000/svg">
<path d="M44.0394 9.4515C50.4557 9.4515 55.1246 13.8871 54.7933 21.949H39.1682C39.7517 24.1896 41.3106 26.1149 44.431 26.1149C46.1781 26.1149 47.7747 25.6354 48.9796 24.1369H54.3716L54.2813 24.6164C53.3474 28.7223 48.6482 31 44.431 31C37.7437 31 33.2553 26.5044 33.2553 20.2407C33.2553 13.977 37.7437 9.4515 44.0394 9.4515ZM89.2538 9.4515C95.7005 9.4515 100.34 13.8871 100.038 21.949H84.4087C84.9852 24.1896 86.533 26.1149 89.6759 26.1149C91.4233 26.1149 93.0192 25.6354 94.1944 24.1369H99.6167L99.5262 24.6164C98.5922 28.7222 93.8929 31 89.6759 31C82.9887 31 78.5004 26.5045 78.5004 20.2407C78.5004 13.977 82.9887 9.4515 89.2538 9.4515ZM147 30.4006H141.156L141.457 27.4936C140.644 29.2319 138.023 30.9401 134.74 30.9401C129.317 30.9401 124.92 26.8043 124.92 20.2708C124.92 13.7373 129.257 9.60143 134.74 9.60143C137.722 9.60143 139.56 10.5605 141.186 12.2089V1H147V30.4006ZM66.2703 9.33171C71.0298 9.33171 75.2168 11.0399 76.4218 15.2358L76.5423 15.6854H70.608C69.3428 14.1269 67.656 13.9171 66.2703 13.9171C64.975 13.9171 62.9267 14.2468 62.9267 15.5055C62.9267 16.6744 64.2822 17.0639 65.457 17.2138L68.891 17.5734C74.3432 18.053 76.7532 20.1809 76.7532 24.3467C76.7532 29.1419 71.9636 30.9401 67.2342 30.9401C62.5049 30.9401 57.5949 28.8421 56.661 24.5864L56.5706 24.1369H62.6555C63.499 26.5345 67.3848 26.3546 67.2342 26.3546C69.5236 26.3546 70.9394 25.6654 70.9394 24.5564C70.9394 23.8371 70.6983 22.998 68.3488 22.6983L64.7641 22.3386C60.0348 22.009 57.1732 19.5214 57.1732 15.8051C57.1732 11.2497 61.5109 9.33171 66.2703 9.33171ZM23.0738 1C28.7972 1 32.2011 4.38661 32.2011 8.88214C32.2011 13.3776 28.7972 16.7643 23.0738 16.7643H20.182L34.5507 30.4006H24.3993L13.4646 20.061C12.6814 19.3417 12.3199 18.5026 12.3199 17.7833C12.3199 16.7643 13.0429 15.8652 14.4285 15.4756L20.0615 13.9771C22.2002 13.4076 23.6763 11.7593 23.6763 9.60143C23.6763 6.96406 21.5074 5.43555 18.8265 5.43555H5V1H23.0738ZM114.166 9.48143C119.287 9.48143 122.871 13.1977 122.871 18.5024V30.4006H117.028V19.4914C117.028 16.4944 115.431 14.6962 112.599 14.6962C109.768 14.6962 107.931 16.5544 107.931 19.4914V30.4006H102.207V9.901H108.021L107.75 13.1678C108.593 11.5194 111.214 9.48143 114.166 9.48143ZM136.125 14.6964C132.601 14.6964 130.734 17.3037 130.734 20.2708C130.734 23.4476 132.842 25.8751 136.125 25.8751C139.288 25.8751 141.337 23.4176 141.337 20.2708C141.337 17.1239 139.349 14.6964 136.125 14.6964ZM44.0394 14.0968C41.1919 14.0968 39.5649 15.7886 39.06 18.0529H48.9158C48.8558 17.7921 48.7786 17.5134 48.6784 17.2137C47.9554 15.1758 46.2685 14.0969 44.0394 14.0968ZM89.2538 14.0968C86.431 14.0969 84.8086 15.7886 84.3046 18.0529H94.1606C94.1003 17.7921 94.0235 17.5134 93.923 17.2137C93.2001 15.1758 91.513 14.0968 89.2538 14.0968Z" fill="#FFFFFF"/>
</svg>
